<svg xmlns="http://www.w3.org/2000/svg" width="1400" height="720" viewBox="0 0 1400 720" role="img" aria-label="Soweto Night Market event banner">
  <defs><linearGradient id="bg" x1="0" y1="0" x2="1" y2="1"><stop offset="0" stop-color="#09090b"/><stop offset="0.45" stop-color="#581c87"/><stop offset="1" stop-color="#ec4899"/></linearGradient></defs>
  <rect width="1400" height="720" fill="url(#bg)"/>
  <g opacity="0.24" fill="#fff"><circle cx="210" cy="160" r="10"/><circle cx="290" cy="210" r="6"/><circle cx="1040" cy="160" r="12"/><circle cx="1190" cy="280" r="8"/><circle cx="860" cy="520" r="10"/></g>
  <path d="M0 545 C220 445 360 620 560 520 C770 415 965 560 1400 410 L1400 720 L0 720 Z" fill="#111827" opacity="0.88"/>
  <rect x="125" y="115" width="1150" height="470" rx="48" fill="#ffffff" opacity="0.10"/>
  <text x="165" y="285" font-family="Arial, Helvetica, sans-serif" font-size="76" font-weight="900" fill="#fff">Soweto Night Market</text>
  <text x="165" y="365" font-family="Arial, Helvetica, sans-serif" font-size="42" font-weight="800" fill="#fce7f3">Food · DJs · QR Gate Access</text>
  <rect x="165" y="430" width="620" height="74" rx="37" fill="#facc15"/>
  <text x="205" y="478" font-family="Arial, Helvetica, sans-serif" font-size="30" font-weight="900" fill="#111827">High-volume ticket test</text>
  <g transform="translate(980 430)" fill="#fff"><rect width="32" height="140"/><rect x="46" width="12" height="140"/><rect x="76" width="42" height="140"/><rect x="134" width="18" height="140"/><rect x="180" width="28" height="140"/></g>
</svg>
